<svg xmlns="http://www.w3.org/2000/svg" width="232.433" height="153.909" viewBox="0 0 232.433 153.909">
  <g id="roc-logo" transform="translate(-0.271 39.495)">
    <path id="Path_11" data-name="Path 11" d="M87.707,13.846,73.434-18.929H85.328L93.279.8l7.953-19.732h11.894L98.853,13.846Z" transform="translate(41.869 11.769)" fill="none" fill-rule="evenodd"/>
    <path id="Path_12" data-name="Path 12" d="M87.707-6.72,73.434-39.5H85.328l7.951,19.732L101.232-39.5h11.894L98.853-6.72Z" transform="translate(41.869 0)" fill="none" fill-rule="evenodd"/>
    <path id="Path_13" data-name="Path 13" d="M29.2,90.142a33.982,33.982,0,0,1-10.157,1.333c-8.085,0-12.561-4.866-12.561-13.732V67.806H.271V58.14H6.485v-11H17.31v11h9.956v9.666H17.31v8.868c0,3.2,1.269,5.133,4.61,5.133a45.087,45.087,0,0,0,6.28-.535l1,8.868Zm35.209.335L58.465,73.142l-5.88,17.334H42.229L32.072,58.141H43.03L48.109,76.41l6.347-18.27h8.085l6.281,18.336,5.144-18.334H84.857L74.768,90.477ZM161.218,69.61V90.477H150.394V72.806c0-4.066-2.406-5.866-5.479-5.866-1.736,0-3.874.135-6.615.333V90.478H127.475V58.74a186.653,186.653,0,0,1,20.513-1.6c7.951,0,13.229,5,13.229,12.468m34.206,20.534a33.982,33.982,0,0,1-10.157,1.333c-8.085,0-12.561-4.866-12.561-13.732V67.806h-6.214V58.14h6.214v-11h10.825v11h9.956v9.666h-9.956v8.868c0,3.2,1.269,5.133,4.61,5.133a45.124,45.124,0,0,0,6.281-.535l1,8.868Zm-166.78-78.6c-3.706,0-7.479.135-11.187.406V34.474H6.54V3.076A135.845,135.845,0,0,1,28.644.99ZM67.934,18c0,10.558-7.547,17.617-18.532,17.617-10.916,0-18.532-7.059-18.532-17.617C30.869,7.511,38.485.587,49.4.587,60.388.587,67.935,7.511,67.935,18M57.491,18A7.7,7.7,0,0,0,49.4,9.933,7.7,7.7,0,0,0,41.317,18c0,4.976,3.369,8.27,8.086,8.27s8.088-3.294,8.088-8.27m43.535-7.262a57.39,57.39,0,0,0-9.1-1.143c-5.863,0-9.3,3.5-9.3,8.541s3.571,8.27,8.894,8.27a58.05,58.05,0,0,0,9.7-1.211l1.146,8.272a40.1,40.1,0,0,1-11.658,2.017c-10.985,0-18.668-6.86-18.668-17.484C72.047,7.445,79.663.655,90.917.655a39.816,39.816,0,0,1,11.456,1.816l-1.347,8.27Zm13.685,70.95a45.217,45.217,0,0,1-8.544.986c-4.143,0-6.949-1.866-8.086-4.866H119.8a26.516,26.516,0,0,0,.6-6.133c-.066-8.734-6.748-14.536-16.169-14.536-9.822,0-17.039,6.734-17.039,17.135,0,9.868,6.682,17.2,18.776,17.2a41.252,41.252,0,0,0,12.056-2.162l-3.311-7.624ZM104.563,65.342c3.742,0,6.28,2.267,6.479,5.865H97.681C98.415,67.54,100.888,65.342,104.563,65.342ZM227.025,81.689a45.447,45.447,0,0,1-8.553.986c-4.143,0-6.949-1.866-8.085-4.866H232.1a26.593,26.593,0,0,0,.6-6.133c-.066-8.734-6.748-14.536-16.169-14.536-9.822,0-17.039,6.736-17.039,17.136,0,9.868,6.682,17.2,18.776,17.2a41.343,41.343,0,0,0,12.062-2.165l-3.31-7.624ZM216.868,65.342c3.742,0,6.281,2.267,6.481,5.865H209.985C210.721,67.54,213.194,65.342,216.868,65.342Z" transform="translate(0 22.938)" fill="#0063ad" fill-rule="evenodd"/>
    <path id="Path_14" data-name="Path 14" d="M88.029,34.274,74,1.939H85.693L93.51,21.407l7.819-19.468h11.693L98.99,34.274ZM148.362,2.54V34.274H137.471v-2.2a14.28,14.28,0,0,1-9.355,3.2c-7.816,0-15.367-6.067-15.367-17.334.267-10.2,6.215-17,16.237-17,6.148,0,9.555.469,19.377,1.6m-25.123,15.6c0,4.868,3.008,8.2,7.284,8.2a10.631,10.631,0,0,0,6.949-2.8V10.006c-2.206-.2-4.211-.332-6.549-.332-5.28,0-7.685,3.533-7.685,8.465m66.678-4.734V34.274H179.094V16.607c0-4.066-2.406-5.866-5.479-5.866-1.737,0-3.876.132-6.615.333v23.2H156.175V2.54a186.651,186.651,0,0,1,20.513-1.6c7.953,0,13.229,5,13.229,12.468" transform="translate(42.193 23.139)" fill="#e2001a" fill-rule="evenodd"/>
  </g>
</svg>
